<svg xmlns="http://www.w3.org/2000/svg"  viewBox="0 0 64 64" width="64px" height="64px"><linearGradient id="MvPyKCQPVAkONPt1w_EXqa" x1="31.5" x2="31.5" y1="8" y2="56" gradientUnits="userSpaceOnUse" spreadMethod="reflect"><stop offset="0" stop-color="#1a6dff"/><stop offset="1" stop-color="#c822ff"/></linearGradient><path fill="url(#MvPyKCQPVAkONPt1w_EXqa)" d="M44,9v6.563C41.548,10.927,37.03,8,31.5,8C23.098,8,17,14.729,17,24s6.098,16,14.5,16 c5.53,0,10.048-2.927,12.5-7.563V44c0,6.075-4.71,10-12,10c-8.857,0-12-4.848-12-9h-2c0,5.475,4.329,11,14,11c6.969,0,14-3.71,14-12 V9H44z M31.5,38C24.141,38,19,32.243,19,24s5.141-14,12.5-14S44,15.757,44,24S38.859,38,31.5,38z"/><linearGradient id="MvPyKCQPVAkONPt1w_EXqb" x1="36.5" x2="36.5" y1="12" y2="36" gradientUnits="userSpaceOnUse" spreadMethod="reflect"><stop offset="0" stop-color="#6dc7ff"/><stop offset="1" stop-color="#e6abff"/></linearGradient><path fill="url(#MvPyKCQPVAkONPt1w_EXqb)" d="M42,24c0,7.18-4.22,12-10.5,12c-0.17,0-0.34,0-0.5-0.01V12.01C31.16,12,31.33,12,31.5,12 C37.78,12,42,16.82,42,24z"/></svg>